<svg width="30" height="30" viewBox="0 0 30 30" fill="none" xmlns="http://www.w3.org/2000/svg">
<path d="M7.3963 8.62432C7.31174 7.42623 7.57748 6.24606 8.2811 5.29684C8.8911 4.43632 9.68531 3.96636 10.6426 3.69172C11.4489 3.4525 11.9773 3.74561 12.2099 4.64204C12.5421 5.98224 13.0162 7.3225 13.1883 8.73361C13.2427 9.35485 12.841 10.2332 12.4062 10.6856C11.316 11.7589 11.5425 12.5399 12.37 14.1643C12.6266 14.6881 13.0343 15.5934 13.8285 16.7919C14.656 17.9992 15.0938 18.6472 16.1568 18.0975C17.3376 17.5035 18.1982 17.8855 19.0891 18.8444C19.693 19.5369 20.3574 20.1318 20.9614 20.8243C21.8341 21.8542 21.7948 22.5641 21.1123 23.2915C19.8833 24.6309 17.854 25.0736 16.3441 24.1766C15.5106 23.6881 14.6801 23.0487 14.0188 22.303C11.1047 18.9825 9.00286 15.1212 7.73755 10.7632C7.53522 10.0265 7.4416 9.28104 7.3963 8.62432Z" stroke="#FE7865" stroke-width="2" stroke-miterlimit="10"/>
</svg>
